<svg height="512pt" viewBox="0 0 512 512" width="512pt" xmlns="http://www.w3.org/2000/svg"><path d="m416 512h-320c-53.023438 0-96-42.976562-96-96v-320c0-53.023438 42.976562-96 96-96h320c53.023438 0 96 42.976562 96 96v320c0 53.023438-42.976562 96-96 96zm0 0" fill="#fff9dd"/><path d="m352 128h-192c-17.648438 0-32 14.351562-32 32v192c0 17.648438 14.351562 32 32 32h192c17.648438 0 32-14.351562 32-32v-192c0-17.648438-14.351562-32-32-32zm10.671875 224c0 5.886719-4.769531 10.671875-10.671875 10.671875h-128v-58.671875c0-8.832031-7.167969-16-16-16h-58.671875v-128c0-5.886719 4.769531-10.671875 10.671875-10.671875h192c5.886719 0 10.671875 4.769531 10.671875 10.671875zm0 0" fill="#ffd200"/><path d="m330.671875 170.671875h-64c-4.320313 0-8.207031 2.59375-9.855469 6.574219-1.664062 3.984375-.738281 8.578125 2.320313 11.632812l24.464843 24.464844-45.792968 45.792969c-4.160156 4.160156-4.160156 10.910156 0 15.085937 2.078125 2.082032 4.816406 3.121094 7.535156 3.121094 2.734375 0 5.457031-1.039062 7.535156-3.121094l45.792969-45.789062 24.464844 24.460937c2.03125 2.015625 4.765625 3.105469 7.535156 3.105469 1.375 0 2.769531-.257812 4.082031-.816406 3.980469-1.648438 6.574219-5.535156 6.574219-9.855469v-64c0-5.886719-4.769531-10.65625-10.65625-10.65625zm0 0" fill="#ffe777"/></svg>