<?xml version="1.0" encoding="iso-8859-1"?>
<!-- Generator: Adobe Illustrator 18.0.0, SVG Export Plug-In . SVG Version: 6.00 Build 0)  -->
<!DOCTYPE svg PUBLIC "-//W3C//DTD SVG 1.1//EN" "http://www.w3.org/Graphics/SVG/1.1/DTD/svg11.dtd">
<svg version="1.1" id="Capa_1" xmlns="http://www.w3.org/2000/svg" xmlns:xlink="http://www.w3.org/1999/xlink" x="0px" y="0px"
	 viewBox="0 0 464.389 464.389" style="enable-background:new 0 0 464.389 464.389;" xml:space="preserve">
<g>
	<path d="M443.279,0.008H21.11C9.452,0.008,0,9.461,0,21.11v422.17c0,11.65,9.452,21.102,21.11,21.102h422.169
		c11.658,0,21.11-9.451,21.11-21.102V21.11C464.389,9.461,454.937,0.008,443.279,0.008z M422.169,422.178H42.22V42.213h379.95
		V422.178z"/>
	<path d="M58.704,219.75h25.438v144.861c0,8.643,7.002,15.637,15.636,15.637h144.869v25.438c0,1.879,1.129,3.574,2.871,4.293
		c1.74,0.717,3.733,0.318,5.068-1.01l41.067-41.074c1.818-1.816,1.818-4.748,0-6.566l-41.067-41.076
		c-1.335-1.326-3.329-1.723-5.068-1.006c-1.742,0.719-2.871,2.412-2.871,4.291v25.439H115.414V219.75h25.438
		c1.878,0,3.573-1.129,4.291-2.869c0.725-1.742,0.328-3.742-1.008-5.068l-41.067-41.078c-1.816-1.814-4.764-1.814-6.581,0
		L55.42,211.813c-1.336,1.326-1.733,3.326-1.008,5.068C55.13,218.621,56.825,219.75,58.704,219.75z"/>
</g>
<g>
</g>
<g>
</g>
<g>
</g>
<g>
</g>
<g>
</g>
<g>
</g>
<g>
</g>
<g>
</g>
<g>
</g>
<g>
</g>
<g>
</g>
<g>
</g>
<g>
</g>
<g>
</g>
<g>
</g>
</svg>
